<?xml version="1.0" standalone="no"?>
<!DOCTYPE svg PUBLIC "-//W3C//DTD SVG 20010904//EN"
 "http://www.w3.org/TR/2001/REC-SVG-20010904/DTD/svg10.dtd">
<svg version="1.0" xmlns="http://www.w3.org/2000/svg"
 width="500.000000pt" height="500.000000pt" viewBox="0 0 500.000000 500.000000"
 preserveAspectRatio="xMidYMid meet">
<metadata>
Created by potrace 1.16, written by Peter Selinger 2001-2019
</metadata>
<g transform="translate(0.000000,500.000000) scale(0.100000,-0.100000)"
fill="#000000" stroke="none">
<path d="M2477 4183 c-2 -4 -20 -57 -40 -118 -116 -362 -152 -465 -162 -465
-6 0 -131 61 -278 135 -155 78 -273 132 -282 129 -8 -3 -15 -13 -15 -22 0 -8
61 -134 135 -280 75 -146 134 -271 131 -277 -2 -6 -39 -22 -83 -34 -43 -13
-174 -54 -290 -93 -293 -96 -297 -86 78 -208 160 -52 293 -99 295 -105 2 -5
-36 -87 -84 -181 -159 -309 -187 -371 -172 -389 11 -13 47 2 291 127 154 77
281 139 283 137 2 -2 38 -112 81 -244 115 -362 107 -340 135 -340 23 0 29 15
119 293 52 160 98 292 101 292 3 0 125 -61 271 -135 145 -74 270 -136 278
-137 7 -2 18 4 24 13 8 13 -21 76 -131 292 l-140 276 256 85 c142 47 276 90
300 96 35 9 42 15 42 35 0 22 -14 28 -197 89 -109 35 -244 79 -300 96 l-103
31 140 276 c77 151 140 281 140 288 0 34 -46 17 -298 -110 -146 -74 -272 -135
-279 -135 -7 0 -36 75 -69 178 -136 426 -129 407 -151 410 -12 2 -23 0 -26 -5z
m77 -276 c27 -83 79 -245 116 -358 l67 -206 -119 -119 -119 -118 -118 119
-119 120 63 190 c34 105 87 265 116 358 29 92 55 167 58 167 3 0 28 -69 55
-153z m-524 -252 c126 -63 230 -121 230 -128 0 -6 -12 -47 -27 -89 -30 -85
-31 -86 -150 -121 l-52 -16 -97 192 c-53 106 -108 211 -121 235 -14 23 -22 42
-19 42 3 0 109 -52 236 -115z m1055 -123 c-116 -228 -117 -230 -143 -222 -97
30 -128 41 -139 48 -13 8 -63 143 -63 169 0 11 450 245 458 238 2 -1 -49 -106
-113 -233z m-743 -349 l117 -118 -118 -118 -117 -119 -270 90 c-148 50 -309
102 -358 117 -49 14 -85 30 -80 34 5 5 117 43 249 86 132 43 285 93 340 111
55 18 105 33 110 33 6 1 63 -52 127 -116z m572 76 c248 -78 561 -182 570 -190
5 -4 -31 -20 -80 -34 -49 -15 -210 -67 -358 -117 l-270 -90 -118 120 -119 119
117 117 c64 64 119 116 122 116 2 0 64 -19 136 -41z m-298 -349 c60 -61 110
-117 112 -124 2 -8 -17 -74 -42 -147 -24 -74 -75 -230 -112 -346 -37 -117 -70
-213 -74 -213 -3 0 -20 44 -38 98 -17 53 -69 212 -115 354 l-84 256 111 116
c61 64 116 116 122 116 6 0 60 -50 120 -110z m-481 -109 l71 -20 28 -87 c15
-47 24 -90 19 -94 -12 -12 -326 -177 -400 -210 l-63 -29 105 207 c143 283 132
264 152 259 10 -3 50 -14 88 -26z m955 -208 l117 -230 -61 27 c-74 34 -388
198 -400 210 -7 7 37 164 50 179 6 7 158 50 168 48 4 -2 61 -107 126 -234z"/>
</g>
</svg>
